<?xml version="1.0" encoding="UTF-8"?><svg id="Lag_1" xmlns="http://www.w3.org/2000/svg" width="250" height="90" viewBox="0 0 250 90"><defs><style>.cls-1{fill:#ed1c24;}.cls-2{fill:#fff;}.cls-3{fill:#005c13;}.cls-4{stroke:#5c3e00;stroke-width:6.55px;}.cls-4,.cls-5{fill:none;stroke-miterlimit:10;}.cls-5{stroke:#006837;stroke-width:.41px;}</style></defs><path class="cls-4" d="M34.74,30.75c1.53-5.45-.34-10.79-4.63-13.42-2.74-1.68-5.73-1.8-7.28-1.75"/><path class="cls-1" d="M49.53,41.46c2.31,10.92-3.12,34.34-15.51,36.38-12.39,2.04-27.04-18.06-29.36-28.99s5.85-21.44,18.24-23.48c12.39-2.04,24.31,5.16,26.63,16.09Z"/><path class="cls-1" d="M21.95,42.39c-1.57,11.03,5.45,34.11,17.96,35.49,12.51,1.38,25.76-19.46,27.33-30.49,1.57-11.03-7.3-21.09-19.81-22.47-12.51-1.38-23.92,6.44-25.48,17.47Z"/><path class="cls-3" d="M45.12,18.91c-3.45,5.16-9.74,7.53-9.74,7.53,0,0-.69-6,2.76-11.16,3.45-5.16,9.74-7.53,9.74-7.53,0,0,.69,6-2.76,11.16Z"/><path class="cls-5" d="M35.74,26.09c0-.47.22-.91.45-1.33,1.01-1.89,2.03-3.78,3.04-5.68.66-1.24,1.33-2.48,2.07-3.68,1.63-2.66,3.66-5.17,6.32-7.11"/><path class="cls-5" d="M42.95,12.53c-.09-.36-.14-.74-.07-1.1.07-.36.26-.72.59-.95"/><path class="cls-5" d="M44.36,12.08c.44.05.88-.09,1.27-.34s.72-.58,1.03-.93c.26-.29.5-.6.74-.92"/><path class="cls-5" d="M42.25,14.17c1.62.22,3.35-.21,4.59-1.16"/><path class="cls-5" d="M40.73,15.78c-.5-.39-.71-1.03-.63-1.61s.39-1.13.8-1.6"/><path class="cls-5" d="M40.42,17.23c1.77.24,3.66-.31,4.92-1.43"/><path class="cls-5" d="M39.39,18.08c-.32.09-.67-.09-.85-.34s-.21-.56-.23-.86c-.02-.37-.03-.76.1-1.11"/><path class="cls-5" d="M39.15,19.41c1.09.06,2.2.04,3.25-.21s2.06-.72,2.77-1.46"/><path class="cls-5" d="M37.81,21.27c-.3-.14-.55-.36-.71-.63-.27-.43-.29-.94-.3-1.43"/><path class="cls-5" d="M37.65,22.76c.5.08,1.03.05,1.52-.09.43-.12.83-.32,1.22-.52.75-.38,1.52-.77,2.05-1.37"/><path class="cls-2" d="M29.17,34.24c1.73,3.13-4.89-.5-9.58,1.53-4.69,2.02-5.66,8.92-7.4,5.8-1.73-3.13.66-7.3,5.35-9.32,4.69-2.02,9.9-1.13,11.63,2Z"/><path class="cls-4" d="M193.19,31.76c1.53-5.45-.34-10.79-4.63-13.42-2.74-1.68-5.73-1.8-7.28-1.75"/><path class="cls-1" d="M207.97,42.46c2.31,10.92-3.12,34.34-15.51,36.38-12.39,2.04-27.04-18.06-29.36-28.99-2.31-10.92,5.85-21.44,18.24-23.48,12.39-2.04,24.31,5.16,26.63,16.09Z"/><path class="cls-1" d="M180.4,43.39c-1.57,11.03,5.45,34.11,17.96,35.49,12.51,1.38,25.76-19.46,27.33-30.49,1.57-11.03-7.3-21.09-19.81-22.47-12.51-1.38-23.92,6.44-25.48,17.47Z"/><path class="cls-3" d="M203.57,19.91c-3.45,5.16-9.74,7.53-9.74,7.53,0,0-.69-6,2.76-11.16,3.45-5.16,9.74-7.53,9.74-7.53,0,0,.69,6-2.76,11.16Z"/><path class="cls-5" d="M194.18,27.09c0-.47.22-.91.45-1.33,1.01-1.89,2.03-3.78,3.04-5.68.66-1.24,1.33-2.48,2.07-3.68,1.63-2.66,3.66-5.17,6.32-7.11"/><path class="cls-5" d="M201.4,13.53c-.09-.36-.14-.74-.07-1.1s.26-.72.59-.95"/><path class="cls-5" d="M202.8,13.08c.44.05.88-.09,1.27-.34s.72-.58,1.03-.93c.26-.29.5-.6.74-.92"/><path class="cls-5" d="M200.7,15.17c1.62.22,3.35-.21,4.59-1.16"/><path class="cls-5" d="M199.18,16.79c-.5-.39-.71-1.03-.63-1.61s.39-1.13.8-1.6"/><path class="cls-5" d="M198.87,18.24c1.77.24,3.66-.31,4.92-1.43"/><path class="cls-5" d="M197.84,19.09c-.32.09-.67-.09-.85-.34s-.21-.56-.23-.86c-.02-.37-.03-.76.1-1.11"/><path class="cls-5" d="M197.6,20.42c1.09.06,2.2.04,3.25-.21s2.06-.72,2.77-1.46"/><path class="cls-5" d="M196.26,22.27c-.3-.14-.55-.36-.71-.63-.27-.43-.29-.94-.3-1.43"/><path class="cls-5" d="M196.09,23.76c.5.08,1.03.05,1.52-.09.43-.12.83-.32,1.22-.52.75-.38,1.52-.77,2.05-1.37"/><path class="cls-2" d="M187.61,35.24c1.73,3.13-4.89-.5-9.58,1.53-4.69,2.02-5.66,8.92-7.4,5.8s.66-7.3,5.35-9.32c4.69-2.02,9.9-1.13,11.63,2Z"/><path class="cls-4" d="M114.03,31.76c1.53-5.45-.34-10.79-4.63-13.42-2.74-1.68-5.73-1.8-7.28-1.75"/><path class="cls-1" d="M128.81,42.46c2.31,10.92-3.12,34.34-15.51,36.38-12.39,2.04-27.04-18.06-29.36-28.99-2.31-10.92,5.85-21.44,18.24-23.48,12.39-2.04,24.31,5.16,26.63,16.09Z"/><path class="cls-1" d="M101.23,43.39c-1.57,11.03,5.45,34.11,17.96,35.49,12.51,1.38,25.76-19.46,27.33-30.49,1.57-11.03-7.3-21.09-19.81-22.47-12.51-1.38-23.92,6.44-25.48,17.47Z"/><path class="cls-3" d="M124.4,19.91c-3.45,5.16-9.74,7.53-9.74,7.53,0,0-.69-6,2.76-11.16,3.45-5.16,9.74-7.53,9.74-7.53,0,0,.69,6-2.76,11.16Z"/><path class="cls-5" d="M115.02,27.09c0-.47.22-.91.45-1.33,1.01-1.89,2.03-3.78,3.04-5.68.66-1.24,1.33-2.48,2.07-3.68,1.63-2.66,3.66-5.17,6.32-7.11"/><path class="cls-5" d="M122.23,13.53c-.09-.36-.14-.74-.07-1.1s.26-.72.59-.95"/><path class="cls-5" d="M123.64,13.08c.44.05.88-.09,1.27-.34s.72-.58,1.03-.93c.26-.29.5-.6.74-.92"/><path class="cls-5" d="M121.53,15.17c1.62.22,3.35-.21,4.59-1.16"/><path class="cls-5" d="M120.01,16.79c-.5-.39-.71-1.03-.63-1.61s.39-1.13.8-1.6"/><path class="cls-5" d="M119.71,18.24c1.77.24,3.66-.31,4.92-1.43"/><path class="cls-5" d="M118.68,19.09c-.32.09-.67-.09-.85-.34s-.21-.56-.23-.86c-.02-.37-.03-.76.1-1.11"/><path class="cls-5" d="M118.43,20.42c1.09.06,2.2.04,3.25-.21s2.06-.72,2.77-1.46"/><path class="cls-5" d="M117.09,22.27c-.3-.14-.55-.36-.71-.63-.27-.43-.29-.94-.3-1.43"/><path class="cls-5" d="M116.93,23.76c.5.08,1.03.05,1.52-.09.43-.12.83-.32,1.22-.52.75-.38,1.52-.77,2.05-1.37"/><path class="cls-2" d="M108.45,35.24c1.73,3.13-4.89-.5-9.58,1.53-4.69,2.02-5.66,8.92-7.4,5.8s.66-7.3,5.35-9.32,9.9-1.13,11.63,2Z"/></svg>