<?xml version="1.0" encoding="UTF-8"?><svg id="Lag_1" xmlns="http://www.w3.org/2000/svg" width="350" height="150" viewBox="0 0 350 150"><defs><style>.cls-1{fill:#ffeb0d;}.cls-2{fill:#ffa50d;}.cls-3{fill:#ffbf0d;}</style></defs><rect class="cls-3" x="44.13" y="43.66" width="268.23" height="67.72" rx="15.25" ry="15.25"/><ellipse class="cls-2" cx="72.37" cy="68.24" rx="50.87" ry="49.23"/><ellipse class="cls-3" cx="71.8" cy="67.69" rx="41.26" ry="39.93"/><path class="cls-1" d="M74.77,41.71l5.6,16.68h17.94c1.93,0,2.72,2.49,1.14,3.6l-14.46,10.17,5.56,16.55c.61,1.81-1.45,3.35-3.01,2.25l-14.64-10.29-14.64,10.29c-1.56,1.1-3.62-.44-3.01-2.25l5.56-16.55-14.46-10.17c-1.58-1.11-.79-3.6,1.14-3.6h17.94s5.6-16.68,5.6-16.68c.6-1.8,3.15-1.8,3.75,0Z"/></svg>