<?xml version="1.0" encoding="UTF-8"?><svg id="Lag_1" xmlns="http://www.w3.org/2000/svg" width="200" height="200" viewBox="0 0 200 200"><defs><style>.cls-1{fill:#603813;}.cls-2{fill:#736d00;}.cls-3{stroke-width:.45px;}.cls-3,.cls-4,.cls-5{fill:none;stroke:#5c3e00;stroke-miterlimit:10;}.cls-4{stroke-width:.46px;}.cls-6{fill:#f7931e;}.cls-5{stroke-width:7.18px;}</style></defs><path class="cls-5" d="M102.26,54.26c3.43-14.93-.77-29.56-10.38-36.75-6.13-4.59-12.83-4.93-16.3-4.79"/><path class="cls-1" d="M135.38,83.59c5.19,29.93-6.99,94.06-34.75,99.65-27.76,5.59-60.59-49.48-65.78-79.4-5.19-29.93,13.12-58.72,40.88-64.31,27.76-5.59,54.47,14.14,59.66,44.07Z"/><path class="cls-1" d="M73.6,86.15c-3.51,30.21,12.22,93.44,40.24,97.22,28.02,3.78,57.73-53.31,61.24-83.52,3.51-30.21-16.36-57.76-44.39-61.55-28.02-3.78-53.58,17.64-57.09,47.85Z"/><path class="cls-6" d="M118.97,68.83c-11.25-11.06-14.25-27.27-14.25-27.27,0,0,15.24,1.73,26.49,12.8,11.25,11.06,14.25,27.27,14.25,27.27,0,0-15.24-1.73-26.49-12.8Z"/><path class="cls-2" d="M55.62,151.41c.17.22.59.59,1.07.69,1.37.28,2.06-1.8,1.84-3.28s-.68-3.27.33-4.3c.74-.75,1.9-.66,2.87-.99,2.33-.8,3.11-4.61,1.3-6.39-1.41-1.39-3.56-1.31-5.47-1.13-2,.19-4.43.2-5.52-1.61-1.14-1.88-.04-4.34.03-6.59.08-2.64-1.48-5.25-3.75-6.25-2.87-1.26-6.81.86-7.15,3.01-.14.87.36,1.78,1.36,3.6.61,1.11,1.41,2.25,1.91,3.44.05.11.21.5.46,1.02.25.52.46.9.59,1.14,1.08,1.98,2.31,4.47,4.45,8.79,0,0,2.12,4.28,5.68,8.87Z"/><path class="cls-2" d="M133.05,99.75c1.34.06,2.77.23,3.8,1.16,1.47,1.34,1.64,3.82,3.09,5.18,2.63,2.47,7.04-.48,10.11,1.29,1.37.79,2.17,2.38,2.8,3.91,1.43,3.48,2.08,8.28-.81,10.46-3.81,2.89-9.58-1.94-13.57.65-.97.63-1.69,1.63-2.26,2.69-1.57,2.91-1.95,7.16.51,9.24.62.52,1.36.86,1.93,1.45,1.41,1.49,1.12,4.2-.2,5.79s-3.35,2.26-5.31,2.54c-7.76,1.09-15.95-3.46-19.62-10.91-.99-2.02-1.68-4.21-2.81-6.14-1.25-2.14-3.04-3.9-5.12-5.06-1.02-.57-2.12-1.01-3.01-1.79-1.97-1.74-2.46-4.76-2.43-7.5s.41-5.56-.34-8.18c-.74-2.59-2.56-4.81-2.82-7.5-.22-2.26.78-4.61,2.52-5.89s4.13-1.44,6.01-.4c3.74,2.08,5.15,8.24,9.34,8.7,1.57.17,3.09-.51,4.65-.21,1.19.23,1.91,1.14,3.12,1.29,3.23.41,7.06-.94,10.43-.78Z"/><path class="cls-2" d="M59.57,49.87c.1,1.26,1.32,1.28,2.52,3.3,1.41,2.37.68,3.77,1.83,4.73,1.37,1.14,3.36.46,4.84-.51s2.95-2.24,4.67-2.2c1.56.04,2.9,1.15,4.28,1.93s3.26,1.19,4.38.02c.72-.75.88-1.91,1.24-2.92.77-2.13,2.64-3.75,4.74-4.1.64-.11,1.3-.1,1.91-.34,1.79-.7,2.37-3.47,1.28-5.15s-3.36-2.16-5.13-1.42c-.77.32-1.66.83-2.35.33-.55-.4-.61-1.3-.31-1.93s.86-1.08,1.4-1.5c-.37-.2-.9-.46-1.58-.64-1.4-.38-2.64-.23-3.71,0-3.17.69-3.43,1.83-5.93,2.4-2.63.59-2.74-.58-5.19,0-2.07.49-3.36,1.66-5.93,3.99-2.04,1.86-3.06,2.81-2.96,3.99Z"/><path class="cls-3" d="M105.52,42.68c5.73,5.61,11.56,11.1,17.39,16.59.98.92,1.95,1.84,2.93,2.76,3.2,3.01,6.4,6.03,9.63,9.01.93.86,1.86,1.71,2.75,2.61,1.34,1.34,2.6,2.77,3.85,4.2,1.06,1.21,2.13,2.42,3.01,3.79"/><path class="cls-3" d="M110.56,46.62c1.17-.19,2.34-.38,3.52-.39,1.07-.01,2.19.14,3.07.79.75.56,1.26,1.43,1.65,2.33.21.48.41.99.76,1.36.64.67,1.62.75,2.51.69"/><path class="cls-3" d="M113.39,51.03c-.34,1.1-.66,2.41,0,3.33.64.91,1.95.98,2.65,1.85.45.56.56,1.36.55,2.1s-.12,1.49-.02,2.23.47,1.49,1.12,1.75"/><path class="cls-4" d="M121.17,56.78c.93-.11,1.87-.23,2.79-.11s1.86.51,2.48,1.25c.31.37.54.81.82,1.2.89,1.22,2.37,1.91,3.8,1.78"/><path class="cls-3" d="M122.76,60.27c.14.83-.02,1.68-.03,2.52s.17,1.77.78,2.28c.36.3.83.43,1.13.8.38.46.38,1.16.62,1.72.32.75,1.03,1.2,1.7,1.61"/><path class="cls-3" d="M130.66,65.83c.84.04,1.67-.14,2.51-.17s1.73.12,2.36.72c.46.44.73,1.07,1.16,1.55.6.65,1.46.93,2.28,1.18"/><path class="cls-3" d="M136.02,72.76c.04,1.4.62,2.85,1.73,3.57.25.16.51.28.74.47.97.82.89,2.63,1.96,3.28"/></svg>