<?xml version="1.0" encoding="UTF-8"?><svg id="Lag_1" xmlns="http://www.w3.org/2000/svg" width="400" height="150" viewBox="0 0 400 150"><defs><style>.cls-1{fill:#38ad55;}.cls-2{fill:#004112;}</style></defs><rect class="cls-2" x="34.07" y="34.17" width="343.83" height="93.23" rx="27.11" ry="27.11"/><path class="cls-1" d="M102.92,73.6c0,1.51-.23,2.85-.69,4.02-.46,1.17-1.08,2.19-1.88,3.06-.8.87-1.73,1.61-2.8,2.22-1.07.61-2.22,1.1-3.44,1.48-1.22.38-2.49.66-3.79.84-1.31.18-2.59.28-3.85.29v10.89h-11.01c0-3.57,0-7.12.02-10.66.02-3.54.04-7.1.07-10.7.03-1.9.04-3.8.02-5.7-.02-1.9.02-3.82.12-5.75,2.02-.59,4.03-1.04,6.05-1.33s4.1-.44,6.24-.44c1.21,0,2.43.1,3.64.29,1.21.2,2.38.5,3.49.92,1.11.42,2.14.95,3.1,1.58s1.78,1.38,2.47,2.25c.69.87,1.24,1.87,1.64,2.98.4,1.11.6,2.36.6,3.75ZM92.42,74.39c0-1.01-.31-1.8-.93-2.37-.62-.57-1.43-.85-2.42-.85-.33,0-.67.03-1.03.08-.35.06-.69.12-1,.2l-.28,6.82c.22.03.43.05.64.05h.64c.57,0,1.11-.09,1.64-.28.53-.19,1-.46,1.41-.81s.74-.76.98-1.24c.24-.48.37-1.01.37-1.6Z"/><path class="cls-1" d="M124.99,82.76l-.99,10.38-19.9,1.54c.09-5.44.2-10.84.32-16.22.12-5.38.26-10.78.44-16.22h12.29c-.36,3.41-.71,6.82-1.04,10.22-.33,3.4-.57,6.84-.71,10.29.74.03,1.47.05,2.2.05h2.2c.88,0,1.75,0,2.6-.02.85-.02,1.72-.02,2.6-.02Z"/><path class="cls-1" d="M155.9,94.07l-11.72,1.5-1.42-5.28h-5.39l-1.18,5.28-12.05-1.17,9.41-31.13,13.14-.65,9.22,31.46ZM141.91,83.13l-1.8-8.13-1.75,8.13h3.54Z"/><path class="cls-1" d="M183.83,64.44l-13,17.95-.61,14.63h-11.2l.28-14.54-6.76-17.34,12.05-1.5,1.89,10.1,6-10.1,11.34.79Z"/><path class="cls-1" d="M222.09,94.07l-11.72,1.5-1.42-5.28h-5.39l-1.18,5.28-12.05-1.17,9.41-31.13,13.14-.65,9.22,31.46ZM208.1,83.13l-1.8-8.13-1.75,8.13h3.54Z"/><path class="cls-1" d="M250.54,91.31c-.74.92-1.65,1.72-2.74,2.41-1.09.69-2.25,1.25-3.5,1.71s-2.52.79-3.83,1.02c-1.31.23-2.55.34-3.73.34-2.28,0-4.39-.41-6.31-1.21-1.92-.81-3.58-1.93-4.97-3.35-1.39-1.43-2.49-3.1-3.27-5.04-.79-1.93-1.18-4.01-1.18-6.24,0-1.7.2-3.36.59-4.99.39-1.63.96-3.16,1.69-4.6.73-1.44,1.63-2.77,2.68-3.97,1.06-1.21,2.25-2.25,3.59-3.12,1.34-.87,2.8-1.55,4.4-2.03s3.29-.72,5.1-.72c.68,0,1.4.03,2.17.08.77.05,1.54.15,2.3.28s1.51.32,2.23.55c.72.23,1.39.52,1.99.87l-.66,8.93c-.88-.33-1.79-.55-2.73-.67-.94-.12-1.85-.18-2.75-.18-1.26,0-2.44.19-3.53.57-1.1.38-2.05.93-2.86,1.65s-1.45,1.59-1.93,2.62-.71,2.19-.71,3.48c0,.81.11,1.59.33,2.35.22.76.56,1.43,1,2.01.45.58,1.01,1.06,1.68,1.41.67.36,1.45.54,2.33.54.6,0,1.22-.08,1.85-.23.64-.16,1.19-.42,1.64-.79l.09-1.82-5.67-.09.28-7.01c2.35-.08,4.69-.14,7.04-.2s4.71-.13,7.09-.22l.28,15.71Z"/><path class="cls-1" d="M282.14,94.07l-11.72,1.5-1.42-5.28h-5.39l-1.18,5.28-12.05-1.17,9.41-31.13,13.14-.65,9.22,31.46ZM268.15,83.13l-1.8-8.13-1.75,8.13h3.54Z"/><path class="cls-1" d="M295.4,63.17l-2.6,31.83-9.97.51v-31.69l12.57-.65Z"/><path class="cls-1" d="M326.36,84.25c0,1.76-.02,3.5-.06,5.22-.04,1.72-.1,3.46-.18,5.2l-13.61-.23c.47-2.76.88-5.51,1.23-8.26.35-2.75.52-5.53.52-8.33,0-.2,0-.53-.02-.98-.02-.45-.05-.96-.09-1.53-.05-.57-.11-1.15-.2-1.75-.09-.6-.21-1.15-.35-1.65-.15-.5-.33-.91-.54-1.23-.21-.32-.47-.48-.77-.48-.54,0-.99.16-1.36.47s-.68.71-.92,1.2c-.24.49-.44,1.04-.58,1.65-.14.61-.25,1.21-.32,1.82-.07.61-.12,1.18-.14,1.72-.02.54-.04.98-.04,1.32-.08,2.76-.14,5.5-.19,8.21s-.11,5.46-.19,8.24l-12.05.51c.31-5.5.62-10.97.91-16.41s.52-10.91.7-16.41l11.15-.56-.09,3.74c.44-.53.92-1.03,1.43-1.5.51-.47,1.06-.87,1.64-1.2.58-.33,1.2-.6,1.85-.79.65-.2,1.34-.29,2.07-.29,1.34,0,2.51.22,3.52.65,1.01.44,1.88,1.03,2.6,1.78.72.75,1.33,1.63,1.82,2.65.49,1.02.88,2.11,1.18,3.26.3,1.15.53,2.36.69,3.61.16,1.25.26,2.49.32,3.7.05,1.21.08,2.39.08,3.53v3.11Z"/><path class="cls-1" d="M340.16,61.35l-1.94,24.59h-8.74l-.9-24.59h11.58ZM338.6,93.14c0,.69-.13,1.32-.4,1.92-.27.59-.63,1.11-1.08,1.55-.45.44-.97.79-1.57,1.05-.6.26-1.24.39-1.91.39s-1.34-.13-1.94-.39c-.6-.26-1.12-.61-1.57-1.05-.45-.44-.8-.96-1.06-1.55-.26-.59-.39-1.23-.39-1.92s.13-1.31.39-1.92c.26-.61.61-1.13,1.06-1.58.45-.44.97-.8,1.57-1.06.6-.26,1.24-.4,1.94-.4s1.32.13,1.91.4c.6.26,1.12.62,1.57,1.06.45.44.81.97,1.08,1.58.27.61.4,1.25.4,1.92Z"/></svg>