<?xml version="1.0" encoding="UTF-8"?><svg id="Lag_1" xmlns="http://www.w3.org/2000/svg" width="300" height="150" viewBox="0 0 300 150"><defs><style>.cls-1{fill:#b20000;}.cls-2{fill:#ed1c24;}.cls-3{fill:#ffd9a3;}.cls-4{fill:#6f0000;}.cls-5{fill:#9e0000;}</style></defs><rect class="cls-2" x="25.3" y="44.02" width="258.1" height="64.58" rx="14.61" ry="14.61"/><ellipse class="cls-5" cx="57.78" cy="66.63" rx="48.25" ry="46.28"/><ellipse class="cls-3" cx="58" cy="66.84" rx="44.33" ry="42.52"/><ellipse class="cls-1" cx="90.58" cy="51.06" rx="2.02" ry="1.93"/><ellipse class="cls-1" cx="79.16" cy="38.17" rx="2.02" ry="1.93"/><rect class="cls-1" x="57" y="27.22" width="1.74" height="10.95" rx=".38" ry=".38"/><rect class="cls-1" x="93.61" y="61.08" width="1.67" height="11.42" rx=".38" ry=".38" transform="translate(161.23 -27.66) rotate(90)"/><rect class="cls-1" x="57.37" y="95.95" width="1.74" height="10.95" rx=".38" ry=".38" transform="translate(116.48 202.86) rotate(180)"/><rect class="cls-1" x="21.39" y="62.16" width="1.67" height="11.42" rx=".38" ry=".38" transform="translate(90.09 45.65) rotate(90)"/><ellipse class="cls-1" cx="37.51" cy="38.17" rx="2.02" ry="1.93"/><ellipse class="cls-1" cx="28.11" cy="52.99" rx="2.02" ry="1.93"/><ellipse class="cls-1" cx="26.1" cy="82.63" rx="2.02" ry="1.93"/><ellipse class="cls-1" cx="37.51" cy="96.16" rx="2.02" ry="1.93"/><ellipse class="cls-1" cx="88.57" cy="82.63" rx="2.02" ry="1.93"/><ellipse class="cls-1" cx="75.13" cy="96.16" rx="2.02" ry="1.93"/><path class="cls-4" d="M59.87,64l-1.01-.69c-.22-.15-.27-.45-.12-.66l15.05-20.29c.16-.21.47-.26.69-.11l1.01.69c.22.15.27.45.12.66l-15.05,20.29c-.16.21-.47.26-.69.11Z"/><rect class="cls-4" x="45.14" y="56.31" width="2.14" height="21.42" rx=".48" ry=".48" transform="translate(-20.81 113.23) rotate(-90)"/><ellipse class="cls-1" cx="57.67" cy="66.52" rx="5.37" ry="5.15"/></svg>