<?xml version="1.0" encoding="UTF-8"?><svg id="Lag_1" xmlns="http://www.w3.org/2000/svg" width="200" height="200" viewBox="0 0 200 200"><defs><style>.cls-1,.cls-2,.cls-3{fill:none;}.cls-4{fill:#ffe994;}.cls-5{fill:#ed1c24;}.cls-6{fill:#005c13;}.cls-2{stroke:#5c3e00;stroke-width:6.72px;}.cls-2,.cls-3{stroke-miterlimit:10;}.cls-7{fill:#42210b;}.cls-3{stroke:#006837;stroke-width:.42px;}</style></defs><path class="cls-4" d="M42.08,170.65c.18-.05.36-.1.55-.14,2.98-.73,5.99-2.42,9-3.05,4.03-.84,6.46-4.52,7.86-8.02,1.64-4.07,2.55-8.44,1.96-12.73s-2.77-8.5-6.51-11.22c-.89-.65-1.95-1.34-2.1-2.36,2.8-2.29,4.84-5,5.96-8.25s1.54-6.67,1.81-10.07c.17-2.15.26-4.39-.65-6.39-.43-.93-1.06-1.77-1.68-2.6-.88-1.17-1.76-2.34-2.64-3.51-1.13-1.5-2.38-3.09-4.27-3.7,4.16-4.32,7.94-8.7,9.82-14.15,1.88-5.46,1.17-11.97-3.29-16.04-2.62-.02-5.69-.16-7.77-1.58-1.59-1.08-2.49-2.78-3.45-4.36-2.07-3.44-4.82-6.73-8.7-8.49.67-1.69,1.77-2.41,3.35-3.5,1.47-1.02,2.59-2.4,4.08-3.38,2.5-1.64,5.75-1.98,8.83-2.26,2.97-.27,5.95-.54,8.93-.38,2.11.12,4.2.45,6.26.87,4.98,1.02,9.96,2.59,13.85,5.56,1.67.12,3.47-.29,5.08-.71,7.39-1.91,15.02-3.06,22.7-3.44,8.94-.44,17.91.42,26.4,3,1.47.45,2.98.97,4.06,1.98s1.63,2.61.87,3.84c-.81,0-1.48.39-2.29.39-.22,0-.47,0-.64.14-.22.17-.23.46-.24.72-.17,2.84-3.23,4.68-5.41,6.74-2.12,2-3.73,4.64-6.56,5.72-1.07.41-2.21.54-3.36.57-1.06.03-2.91-.52-3.87-.22-1.5.47-2.44,3.34-2.98,4.7-1.54,3.89-1.99,8.25-.27,12.16.45,1.02,1.03,1.99,1.61,2.96,1.88,3.12,3.83,6.33,6.88,8.58.31.23.68.54.57.9-.09.3-.46.43-.78.55-3.67,1.31-5.59,4.91-6.9,8.26-.74,1.89-1.4,3.82-1.97,5.76-.47,1.6-.88,3.24-.71,4.89.15,1.39.7,2.71,1.26,4.02,1.12,2.63,2.23,5.27,3.35,7.9.56,1.31,1.26,2.77,2.71,3.28-1.69,1.86-2.94,4.54-4.63,6.4-.97,1.07-1.96,2.17-2.53,3.46-.53,1.21-.66,2.52-.71,3.81-.22,4.83.49,9.69,2.06,14.32,1.28,3.76,3.4,7.6,7.26,9.43,1.62-.77,3.65-1.41,5.48-1.25,1.16.1,2.22.59,3.31.96,1.21.41,2.48.7,3.76.84.78.09,1.58.12,2.32.38s1.41.78,1.55,1.48c.17.9-.56,1.72-1.33,2.31s-1.66,1.15-1.99,2.01c-.92,2.45-4.2,4.19-6.19,6.06-1.54,1.45-3.1,2.91-4.9,4.08-1.03.67-2.13,1.24-3.24,1.81-4.09,2.11-8.23,4.25-12.77,5.35s-9.62,1.09-13.74-.97c-1.74-.87-3.35-2.11-5.33-2.33-3.97-.45-8.01,1.89-11.94,2.55-6,1.01-12.05-1.28-17.41-3.9-1.53-.75-3.05-1.54-4.48-2.43-1.63-1.02-3.15-2.17-4.67-3.33-5.24-3.99-10.55-8.05-14.39-13.17.46.61,8.04-1.82,8.86-2.1,3.14-1.07,6.24-2.43,9.64-2.64.93-.06,1.88-.03,2.77.23.82.24,1.56.67,2.27,1.11,2.05,1.29,3.94,2.78,5.64,4.44,2.99-.3,6.16-.82,8.89-1.98,1.87-.79,3.81-1.8,5.86-1.58,3.06.33,5.03,3.22,7.98,4.05,4.04,1.15,8.07-1.89,12.3-2.14,3.46-.21,6.68,1.46,10.08,2.07,4.06.74,8.44-.1,11.82-2.26"/><path class="cls-2" d="M86.16,65.86c4.1-14.89-.92-29.48-12.39-36.65-7.32-4.58-15.32-4.92-19.47-4.78"/><path class="cls-6" d="M113.92,33.51c-9.23,14.11-26.06,20.58-26.06,20.58,0,0-1.86-16.39,7.37-30.5,9.23-14.11,26.06-20.58,26.06-20.58,0,0,1.86,16.39-7.37,30.5Z"/><path class="cls-3" d="M88.82,53.11c-.02-1.27.59-2.48,1.2-3.63,2.71-5.17,5.42-10.34,8.13-15.51,1.77-3.38,3.55-6.77,5.53-10.06,4.36-7.26,9.8-14.13,16.91-19.41"/><path class="cls-3" d="M108.11,16.08c-.25-.98-.38-2.01-.19-3.01s.71-1.96,1.57-2.61"/><path class="cls-3" d="M111.88,14.84c1.17.14,2.36-.26,3.39-.92s1.92-1.58,2.75-2.55c.69-.8,1.35-1.63,1.97-2.5"/><path class="cls-3" d="M106.25,20.55c4.35.61,8.96-.59,12.29-3.18"/><path class="cls-3" d="M102.18,24.96c-1.34-1.07-1.89-2.8-1.69-4.41s1.06-3.1,2.14-4.38"/><path class="cls-3" d="M101.36,28.93c4.74.66,9.79-.84,13.17-3.9"/><path class="cls-3" d="M98.61,31.25c-.85.25-1.8-.24-2.27-.93s-.55-1.53-.6-2.34c-.07-1.02-.09-2.07.28-3.04"/><path class="cls-3" d="M97.96,34.89c2.92.17,5.88.1,8.7-.57s5.52-1.98,7.4-3.99"/><path class="cls-3" d="M94.36,39.96c-.8-.39-1.46-.99-1.9-1.71-.71-1.18-.78-2.57-.81-3.91"/><path class="cls-3" d="M93.93,44.03c1.35.21,2.76.13,4.07-.24,1.16-.33,2.22-.87,3.27-1.41,2.01-1.03,4.07-2.1,5.49-3.75"/><path class="cls-5" d="M84.97,49.76c-8.28-4.18-16.72-7.96-25.56-8.49-8.84-.53-18.32,2.82-23.77,12.11,6.44,1.77,8.59,13.87,14.86,16.52,6.65,2.8,14.03-6.61,20.35-2.68,2.56,1.59,4.2,5.06,6.68,6.86,4.95,3.6,10.91-.48,15.89-4.01,4.98-3.53,11.76-6.24,15.7-.88,1.26,1.7,2.24,4.22,4.02,4.48,1.48.22,2.75-1.29,4.11-2.12,3.04-1.87,6.6-.31,9.95-.58,5.21-.41,9.58-5.19,13.4-9.92.9-1.11,1.84-2.37,1.99-3.98.3-3.21,4.67-.91,3.46-3.71-4.58-10.52-36.01-10.46-52.88-5.94-5.87,1.57-11.9,3.54-17.77,2.01"/><path class="cls-5" d="M34.76,167.07c5.99,7.46,14.35,16.42,21.95,21.9,7.62,5.49,17.3,8.32,26.09,5.59,3.05-.95,6.11-2.56,9.24-2.04,1.93.32,3.65,1.42,5.45,2.23,7.4,3.35,16.06,1.8,23.23-2.09,7.17-3.9,13.13-9.92,18.99-15.85.95-.96,1.33-2.43,2.35-3.31,3.88-3.37,3.03-5.82-1.86-6-4.45-.17-8.43-2.83-12.71-1.48-4.28,1.35-8.51,3.49-12.95,3.18-5.71-.39-11.64-4.73-16.69-1.82-1.6.93-2.89,2.52-4.65,3.02-4.28,1.21-7.58-4.54-11.93-5.43-5.74-1.18-11.84,6.26-16.72,2.78-1.44-1.02-2.28-2.8-3.65-3.93-2.43-2.02-5.85-1.56-8.87-1.01-4.68.85-12.59,3.42-17.28,4.27"/><path class="cls-7" d="M91.17,116.65c-1.65-3.38,1.65-7.95,1.65-7.95,0,0,5.97.91,7.61,4.29,1.65,3.38-1.65,7.95-1.65,7.95,0,0-5.97-.91-7.61-4.29Z"/><path class="cls-7" d="M87.15,116.79c1.65-3.38-1.65-7.95-1.65-7.95,0,0-5.97.91-7.61,4.29-1.65,3.38,1.65,7.95,1.65,7.95,0,0,5.97-.91,7.61-4.29Z"/><path class="cls-1" d="M142.69,55.6l-.02,1.34c-1.01-.05-2.03,0-3.04.14-.42,1.99-1.56,3.81-2.85,5.47-1.95,2.51-4.36,4.81-7.36,6.26s-6.66,1.97-9.87.93c-2.84,4.33-4,9.71-3.22,14.68.18,1.12.53,2.2.99,3.26.7,1.59,1.39,3.18,2.29,4.69,1.68,2.82,4.03,5.26,6.35,7.68-6.47,5.08-10.48,12.78-10.47,20.51,0,2.63,1.72,4.95,2.79,7.41.38.86.76,1.73,1.27,2.53.46.72,1.02,1.38,1.58,2.04.65.77,1.3,1.53,1.95,2.3-5.04,4.78-7.78,11.73-7.5,18.32.06,1.47.58,2.96.98,4.39.33,1.15.66,2.3,1.27,3.35.81,1.38,2.06,2.5,3.22,3.66,1.91,1.91,3.61,3.98,5.07,6.18,4.36.39,8.53,1.14,12.81,2.03,1.03.21,2.33.79,2.12,1.72-.06.28-.26.52-.46.75-4.15,4.81-8.74,9.35-14.1,13.06-5.36,3.72-11.51,6.6-18.13,7.85-1.56.3-3.17.5-4.76.36-1.11-.1-2.2-.37-3.27-.66-2.84-.78-5.61-1.74-8.3-2.86-2.6-1.09-6.18-.11-8.93.61-1.61.42-3.16,1.02-4.8,1.35-1.88.38-3.82.41-5.74.43-1.39.02-2.79.03-4.14-.26-2.44-.53-4.46-2.01-6.64-3.13-1.72-.89-3.57-1.56-5.22-2.55-2.94-1.76-5.05-4.41-7.58-6.63-3.45-3.03-7.84-5.44-9.92-9.35-.34-.64-.54-1.36-1.09-1.87,6.08-.98,12.04-1.92,18.07-3.14,2.1-.42,4.46-.83,6.28.21,1.59.9,2.32,2.68,3.82,3.69,1.27.86,3.06,1.07,4.53.53,3.24-1.19,6.11-2.74,9.6-2.95,2.56-.15,4.83,1.35,6.96,2.65s4.77,2.49,7.17,1.67c2.34-.8,4.04-2.76,6.53-2.97,2.35-.2,4.59.76,6.84,1.42,2.69.79,5.54,1.16,8.37,1.08,3.93-.1,7.34-3.38,11.27-3.27"/></svg>