<?xml version="1.0" encoding="UTF-8"?><svg id="Lag_1" xmlns="http://www.w3.org/2000/svg" width="200" height="200" viewBox="0 0 200 200"><defs><style>.cls-1{fill:#ed1c24;}.cls-2{fill:#fff;}.cls-3{fill:#005c13;}.cls-4{stroke:#5c3e00;stroke-width:7.89px;}.cls-4,.cls-5{fill:none;stroke-miterlimit:10;}.cls-5{stroke:#006837;stroke-width:.49px;}</style></defs><path class="cls-4" d="M87.74,62.86c3.71-14.78-.83-29.26-11.22-36.38-6.63-4.55-13.88-4.88-17.63-4.75"/><path class="cls-1" d="M123.57,91.9c5.61,29.63-7.56,93.12-37.59,98.66S20.44,141.57,14.83,111.94c-5.61-29.63,14.19-58.13,44.21-63.67,30.03-5.53,58.92,14,64.53,43.63Z"/><path class="cls-1" d="M56.75,94.42c-3.8,29.91,13.22,92.51,43.53,96.25,30.31,3.75,62.44-52.78,66.24-82.69,3.8-29.91-17.7-57.19-48.01-60.93-30.31-3.75-57.96,17.46-61.75,47.37Z"/><path class="cls-3" d="M112.89,30.74c-8.36,14-23.61,20.43-23.61,20.43,0,0-1.68-16.27,6.68-30.28C104.32,6.9,119.57.47,119.57.47c0,0,1.68,16.27-6.68,30.28Z"/><path class="cls-5" d="M90.15,50.2c-.02-1.26.54-2.46,1.09-3.6,2.45-5.13,4.91-10.26,7.36-15.4,1.61-3.36,3.21-6.72,5.01-9.99,3.95-7.21,8.88-14.03,15.32-19.27"/><path class="cls-5" d="M107.62,13.44c-.23-.98-.34-2-.17-2.98s.64-1.95,1.43-2.59"/><path class="cls-5" d="M111.04,12.21c1.06.14,2.14-.25,3.07-.91s1.74-1.57,2.5-2.53c.62-.79,1.22-1.62,1.79-2.48"/><path class="cls-5" d="M105.94,17.88c3.94.6,8.12-.58,11.13-3.16"/><path class="cls-5" d="M102.25,22.26c-1.22-1.06-1.71-2.78-1.54-4.38s.96-3.07,1.94-4.35"/><path class="cls-5" d="M101.51,26.2c4.29.65,8.86-.83,11.93-3.87"/><path class="cls-5" d="M99.02,28.5c-.77.25-1.63-.24-2.05-.93s-.5-1.52-.55-2.32c-.06-1.01-.08-2.05.25-3.01"/><path class="cls-5" d="M98.43,32.11c2.64.16,5.32.1,7.88-.56s5-1.96,6.71-3.96"/><path class="cls-5" d="M95.17,37.14c-.72-.39-1.33-.98-1.72-1.7-.65-1.17-.7-2.55-.73-3.88"/><path class="cls-5" d="M94.78,41.18c1.22.21,2.5.13,3.68-.24,1.05-.33,2.01-.87,2.96-1.4,1.82-1.02,3.69-2.09,4.97-3.73"/><path class="cls-2" d="M74.22,72.32c4.2,8.48-11.86-1.34-23.22,4.14-11.36,5.48-13.73,24.2-17.93,15.72-4.2-8.48,1.6-19.8,12.97-25.28,11.36-5.48,23.98-3.06,28.19,5.42Z"/></svg>